<svg xmlns="http://www.w3.org/2000/svg" width="1080px" height="1080px" fill="none">
<g><path style="opacity:1" fill="#fcfdfe" d="M -0.5,-0.5 C 13.5,-0.5 27.5,-0.5 41.5,-0.5C 26.0168,3.16056 14.1835,11.8272 6,25.5C 3.31502,30.7441 1.14836,36.0775 -0.5,41.5C -0.5,27.5 -0.5,13.5 -0.5,-0.5 Z"/></g>
<g><path style="opacity:1" fill="#3178c6" d="M 41.5,-0.5 C 372.5,-0.5 703.5,-0.5 1034.5,-0.5C 1058.94,4.54546 1073.94,19.2121 1079.5,43.5C 1079.5,373.833 1079.5,704.167 1079.5,1034.5C 1074.41,1058.34 1060.08,1073.34 1036.5,1079.5C 704.833,1079.5 373.167,1079.5 41.5,1079.5C 18.1847,1073.21 4.18474,1058.21 -0.5,1034.5C -0.5,703.5 -0.5,372.5 -0.5,41.5C 1.14836,36.0775 3.31502,30.7441 6,25.5C 14.1835,11.8272 26.0168,3.16056 41.5,-0.5 Z"/></g>
<g><path style="opacity:1" fill="#fbfcfe" d="M 1034.5,-0.5 C 1049.5,-0.5 1064.5,-0.5 1079.5,-0.5C 1079.5,14.1667 1079.5,28.8333 1079.5,43.5C 1073.94,19.2121 1058.94,4.54546 1034.5,-0.5 Z"/></g>
<g><path style="opacity:1" fill="#fefefe" d="M 803.5,497.5 C 838.92,494.917 873.254,499.751 906.5,512C 925.102,519.596 941.269,530.762 955,545.5C 960.001,551.15 963.167,557.65 964.5,565C 964.087,571.904 962.254,578.404 959,584.5C 952.128,598.048 942.961,609.881 931.5,620C 921.334,627.943 910,630.276 897.5,627C 885.155,622.498 874.489,615.498 865.5,606C 857.755,600.306 849.088,596.973 839.5,596C 820.923,592.388 804.757,596.888 791,609.5C 784.779,618.162 782.779,627.829 785,638.5C 787.22,645.101 791.053,650.601 796.5,655C 803.058,659.446 810.058,663.113 817.5,666C 840.307,670.361 862.974,675.361 885.5,681C 907.218,686.793 927.884,695.126 947.5,706C 972.555,726.942 986.389,753.775 989,786.5C 993.167,869.663 955,921.83 874.5,943C 814.417,957.056 760.084,945.389 711.5,908C 695.834,894.339 683.168,878.339 673.5,860C 669.144,850.549 669.644,841.382 675,832.5C 679.615,825.55 684.615,818.884 690,812.5C 712.655,787.156 736.488,785.989 761.5,809C 771.183,818.088 780.849,827.088 790.5,836C 815.542,853.903 841.542,855.237 868.5,840C 880.6,828.362 885.1,814.195 882,797.5C 880.021,793.044 877.187,789.21 873.5,786C 867.123,781.811 860.456,778.145 853.5,775C 835.221,770.21 816.888,765.543 798.5,761C 770.721,753.107 744.721,741.44 720.5,726C 691.452,699.399 677.452,666.233 678.5,626.5C 681.755,573.811 706.755,535.311 753.5,511C 769.638,504.114 786.305,499.614 803.5,497.5 Z"/></g>
<g><path style="opacity:1" fill="#fefefe" d="M 287.5,503.5 C 334.498,504.087 381.498,504.587 428.5,505C 476.72,508.287 519.054,525.62 555.5,557C 619.775,613.489 643.609,683.989 627,768.5C 611.817,831.996 576.317,880.496 520.5,914C 493.099,929.244 463.766,938.244 432.5,941C 382.5,941.667 332.5,941.667 282.5,941C 272.015,940.01 263.515,935.51 257,927.5C 253.263,918.884 250.929,909.884 250,900.5C 249.333,779.5 249.333,658.5 250,537.5C 251.55,528.235 255.383,520.068 261.5,513C 269.581,507.921 278.247,504.754 287.5,503.5 Z"/></g>
<g><path style="opacity:1" fill="#568ecf" d="M 414.5,610.5 C 395.167,610.5 375.833,610.5 356.5,610.5C 356.5,685.5 356.5,760.5 356.5,835.5C 377.167,835.5 397.833,835.5 418.5,835.5C 397.673,836.497 376.673,836.831 355.5,836.5C 355.5,760.833 355.5,685.167 355.5,609.5C 375.34,609.17 395.007,609.503 414.5,610.5 Z"/></g>
<g><path style="opacity:1" fill="#3178c6" d="M 414.5,610.5 C 463.969,613.314 498.802,637.314 519,682.5C 537.564,747.518 517.064,795.684 457.5,827C 445.01,832.206 432.01,835.039 418.5,835.5C 397.833,835.5 377.167,835.5 356.5,835.5C 356.5,760.5 356.5,685.5 356.5,610.5C 375.833,610.5 395.167,610.5 414.5,610.5 Z"/></g>
<g><path style="opacity:1" fill="#fbfcfe" d="M -0.5,1034.5 C 4.18474,1058.21 18.1847,1073.21 41.5,1079.5C 27.5,1079.5 13.5,1079.5 -0.5,1079.5C -0.5,1064.5 -0.5,1049.5 -0.5,1034.5 Z"/></g>
<g><path style="opacity:1" fill="#fbfcfd" d="M 1079.5,1034.5 C 1079.5,1049.5 1079.5,1064.5 1079.5,1079.5C 1065.17,1079.5 1050.83,1079.5 1036.5,1079.5C 1060.08,1073.34 1074.41,1058.34 1079.5,1034.5 Z"/></g>
</svg>
